Coordinates
nRows=8
nColumns=38

# SIMM Motion File Header:
name Coordinates
datacolumns 38
datarows 8
otherdata 1
range 1.88500000000000000000 1.89200000000000010000

Units are S.I. units (second, meters, Newtons, ...)
Angles are in degrees.

endheader
time	pelvis_tilt	pelvis_list	pelvis_rotation	pelvis_tx	pelvis_ty	pelvis_tz	hip_flexion_r	hip_adduction_r	hip_rotation_r	knee_angle_r	ankle_angle_r	subtalar_angle_r	mtp_angle_r	hip_flexion_l	hip_adduction_l	hip_rotation_l	knee_angle_l	ankle_angle_l	subtalar_angle_l	mtp_angle_l	lumbar_extension	lumbar_bending	lumbar_rotation	arm_flex_r	arm_add_r	arm_rot_r	elbow_flex_r	pro_sup_r	wrist_flex_r	wrist_dev_r	arm_flex_l	arm_add_l	arm_rot_l	elbow_flex_l	pro_sup_l	wrist_flex_l	wrist_dev_l
      1.88500000000000000000	    -13.07181965266958000000	      0.66542416408098781000	      8.17343090813686150000	      0.97992408818385091000	      1.00629689545128410000	     -0.34623702592183125000	     -4.22506446056914080000	      4.84770393638843000000	     -2.56932080758461500000	    -58.10640395484354300000	    -20.89533547295784600000	      0.00000000000003765666	     -0.00000000000012617479	     36.87875063093537200000	     10.27956593003075300000	      4.55636626937296270000	     -9.35078268868216790000	      2.32899189895485660000	     -0.00000000000000347303	      0.00000000000000522170	     -0.12877950397846141000	     -0.80126197225162621000	      7.19375948371745720000	    -18.91752992389696800000	    -21.51227428153247700000	     -3.99245675337749130000	    121.43921714119858000000	    115.47094829928764000000	     -0.00000000000000299904	      0.00000000000001079478	    -49.41069536048501500000	    -11.84078394732369900000	    -15.47758397836467000000	    123.43010770548605000000	    104.97153278701451000000	      0.00000000000002474792	      0.00000000000003555051
      1.88600000000000010000	    -13.04859912529555300000	      0.66394512974941278000	      8.18445587037331810000	      0.97998924178991531000	      1.00574328136947270000	     -0.34618955969881793000	     -4.03387152543106890000	      4.79437342593995910000	     -2.67068022909120510000	    -58.76514618779337700000	    -20.85998296149619000000	      0.00000000000003792423	     -0.00000000000012677410	     36.78697988042044600000	     10.27856521391611900000	      4.45679863850578960000	     -9.37450823625107080000	      2.24491484574492260000	     -0.00000000000000345838	      0.00000000000000524642	     -0.14925238679922256000	     -0.82192189210622224000	      7.13836400793139080000	    -19.02441920618469600000	    -21.48466988315527400000	     -4.05719881508949420000	    121.16068473000593000000	    115.47920533897154000000	     -0.00000000000000302539	      0.00000000000001083306	    -49.30109739732468900000	    -11.82667773847612100000	    -15.46645103843134500000	    123.40332895865915000000	    104.95642026605152000000	      0.00000000000002487245	      0.00000000000003570642
      1.88700000000000000000	    -13.02636623357086300000	      0.66268410079202655000	      8.19415520427922850000	      0.98005306930694480000	      1.00517953213154510000	     -0.34614107404684674000	     -3.84064993168346190000	      4.73861373859646570000	     -2.77151948961148960000	    -59.42286601661012900000	    -20.81966931356304700000	      0.00000000000003819542	     -0.00000000000012737256	     36.69912796523269100000	     10.27640733717836200000	      4.34966563283359960000	     -9.41126331223509280000	      2.15586667424110790000	     -0.00000000000000344422	      0.00000000000000527416	     -0.16837230550534024000	     -0.84276247776972790000	      7.08336026437780570000	    -19.13158513398669000000	    -21.45773428728014700000	     -4.12179208808600970000	    120.87989392238757000000	    115.48995467383611000000	     -0.00000000000000305135	      0.00000000000001087169	    -49.18975286635793500000	    -11.81357318513822800000	    -15.45419350174958100000	    123.37476391598034000000	    104.94145601512291000000	      0.00000000000002499704	      0.00000000000003586161
      1.88800000000000010000	    -13.00504354027625500000	      0.66172190418274968000	      8.20251849022044690000	      0.98011553074660107000	      1.00460583180124520000	     -0.34609151616353395000	     -3.64553035178885220000	      4.68043150324347670000	     -2.87156754363595470000	    -60.07942755023790200000	    -20.77394305417415800000	      0.00000000000003846620	     -0.00000000000012796780	     36.61514586172754100000	     10.27315135027254900000	      4.23512911237345690000	     -9.46110255047497260000	      2.06217078141015180000	     -0.00000000000000343099	      0.00000000000000530545	     -0.18626687690259877000	     -0.86387240347245753000	      7.02873417693988770000	    -19.23890570991449400000	    -21.43145562730534300000	     -4.18614856537916240000	    120.59678774784436000000	    115.50326836376529000000	     -0.00000000000000307650	      0.00000000000001091087	    -49.07665474671220800000	    -11.80144071006759700000	    -15.44085478502192600000	    123.34440142801864000000	    104.92668075571483000000	      0.00000000000002512141	      0.00000000000003601716
      1.88900000000000000000	    -12.98457708399348600000	      0.66113891779763323000	      8.20954268642686640000	      0.98017656298066269000	      1.00402232862441170000	     -0.34604084550906955000	     -3.44861195266441100000	      4.61983013785486300000	     -2.97057333176769460000	    -60.73470767249611400000	    -20.72237191213426000000	      0.00000000000003873645	     -0.00000000000012856247	     36.53502180817629600000	     10.26886449592729800000	      4.11337050154671950000	     -9.52409966026487180000	      1.96422485954735300000	     -0.00000000000000341823	      0.00000000000000533338	     -0.20303773223970417000	     -0.88534348669998586000	      6.97446437865917270000	    -19.34626278644463300000	    -21.40581811331025400000	     -4.25018452727345510000	    120.31130728618480000000	    115.51921363233605000000	     -0.00000000000000310134	      0.00000000000001095113	    -48.96180369436201800000	    -11.79024885250409600000	    -15.42647911374978700000	    123.31223053916879000000	    104.91213001029610000000	      0.00000000000002524579	      0.00000000000003617191
      1.89000000000000010000	    -12.96494487051002600000	      0.66101338824586864000	      8.21523214588380490000	      0.98023607309008942000	      1.00342912315314340000	     -0.34598903400965414000	     -3.24995232524840680000	      4.55680978049837910000	     -3.06830619324628810000	    -61.38859916518814700000	    -20.66454492122198500000	      0.00000000000003900573	     -0.00000000000012915669	     36.45879153520120800000	     10.26362208227326500000	      3.98458921334741540000	     -9.60035007735132770000	      1.86249440832560630000	     -0.00000000000000340782	      0.00000000000000535985	     -0.21875104078368968000	     -0.90727011863363405000	      6.92052237111006010000	    -19.45354351950522100000	    -21.38080208992378700000	     -4.31382084541699310000	    120.02339179287839000000	    115.53785289090385000000	     -0.00000000000000312597	      0.00000000000001099228	    -48.84520930911652700000	    -11.77996444540949700000	    -15.41111151542689200000	    123.27824027725974000000	    104.89783376158493000000	      0.00000000000002537033	      0.00000000000003632680
      1.89100000000000000000	    -12.94615323083572600000	      0.66142147638657123000	      8.21959915759682320000	      0.98029394090431410000	      1.00282627374402120000	     -0.34593606752265332000	     -3.04957146685322390000	      4.49136710838556930000	     -3.16455689891038140000	    -62.04101008580991600000	    -20.60007512721303500000	      0.00000000000003927276	     -0.00000000000012975381	     36.38653384675832600000	     10.25750777984987700000	      3.84900281507026240000	     -9.68996991932063350000	      1.75750458718228140000	     -0.00000000000000339782	      0.00000000000000538454	     -0.23344199726248485000	     -0.92974878048582399000	      6.86687205871010600000	    -19.56063956870706400000	    -21.35638452474565300000	     -4.37698329482063290000	    119.73297920330310000000	    115.55924325787844000000	     -0.00000000000000315039	      0.00000000000001103185	    -48.72688890986673000000	    -11.77055280299368600000	    -15.39479751331629100000	    123.24241967604740000000	    104.88381604847473000000	      0.00000000000002549449	      0.00000000000003648221
      1.89200000000000010000	    -12.92824358495419900000	      0.66243529609002627000	      8.22266418224295670000	      0.98035001510897957000	      1.00221378731169210000	     -0.34588194631234598000	     -2.84744373347550980000	      4.42349587900041460000	     -3.25913801378902690000	    -62.69186609074439100000	    -20.52860179204154200000	      0.00000000000003954615	     -0.00000000000013035543	     36.31837876896210600000	     10.25061298044949100000	      3.70684400673697080000	     -9.79309758255323890000	      1.64980630955492580000	     -0.00000000000000338665	      0.00000000000000541118	     -0.24710736447798490000	     -0.95287698601902593000	      6.81346963532655890000	    -19.66744813845974700000	    -21.33253917821229700000	     -4.43960281805698290000	    119.44000623899322000000	    115.58343666165891000000	     -0.00000000000000317475	      0.00000000000001107062	    -48.60686800704449700000	    -11.76197796494649200000	    -15.37758297840540100000	    123.20475732720297000000	    104.87009476250245000000	      0.00000000000002561832	      0.00000000000003663803
